<svg width="501" height="104" viewBox="0 0 501 104" fill="none" xmlns="http://www.w3.org/2000/svg">
<path fill-rule="evenodd" clip-rule="evenodd" d="M263.808 17.987C251.341 20.6134 240.985 27.3884 236.179 36.0647C233.453 40.9843 233.217 42.2073 233.21 51.3863C233.204 60.5643 233.438 61.7842 236.141 66.652C239.903 73.426 247.301 80.1671 253.718 82.6708C267.956 88.2249 284.579 88.1531 294.86 82.4933C301.262 78.9691 304.703 76.5153 304.699 75.4769C304.697 74.8455 302.239 72.4365 299.236 70.1233L293.776 65.9168L290.99 68.237C285.624 72.7038 282.186 73.831 274.003 73.8071C267.405 73.7871 265.445 73.3642 261.285 71.0639C254.681 67.4111 250.981 62.5752 249.621 55.8191C248.182 48.675 249.631 43.1 254.25 37.9998C258.156 33.6876 267.041 29.94 273.361 29.94C278.037 29.94 289.069 33.4632 290.761 35.4961C292.658 37.7764 294.893 37.113 299.703 32.8427L304.203 28.8477L300.347 25.564C293.044 19.3475 275.06 15.6179 263.808 17.987ZM319.191 19.1391C318.907 19.8762 318.794 35.2886 318.939 53.3892L319.203 86.2988H326.703H334.203L334.703 75.3263L335.203 64.3538H342.19H349.176L353.947 71.3363C356.57 75.1766 360.328 80.226 362.297 82.5581L365.876 86.7975H374.79C379.736 86.7975 383.703 86.3766 383.703 85.8519C383.703 85.024 374.242 71.85 368.621 64.8525C366.782 62.5632 366.754 62.277 368.281 61.3613C374.249 57.7822 376.503 55.8142 379.168 51.8591C386.358 41.1868 380.478 26.2113 366.86 20.5086C362.856 18.8328 359.223 18.5057 340.955 18.1795C323.823 17.8722 319.606 18.0578 319.191 19.1391ZM389.06 19.4792C388.74 20.3091 388.916 21.543 389.449 22.2223C389.982 22.9006 391.901 27.945 393.713 33.4313C395.526 38.9175 399.011 49.2416 401.459 56.3738C403.907 63.5059 406.337 71.1188 406.859 73.2924C407.381 75.4649 408.182 77.7093 408.64 78.2799C409.098 78.8494 409.785 80.7756 410.167 82.5591C410.98 86.3506 412.508 86.8963 421.203 86.5023C428.302 86.1811 429.268 85.7023 430.149 82.0684C430.516 80.5552 433.481 72.3487 436.739 63.8331C439.997 55.3164 442.952 46.9005 443.307 45.1299C444.21 40.6262 447.258 40.73 448.117 45.2925C448.467 47.1539 450.317 52.6491 452.228 57.5049C454.139 62.3618 455.703 66.8844 455.703 67.5547C455.703 68.2261 456.333 70.249 457.102 72.0505C457.872 73.852 459.304 77.3462 460.286 79.815C461.268 82.2838 462.409 84.7008 462.822 85.1865C463.235 85.6723 466.989 86.19 471.165 86.3377L478.756 86.606L480.284 82.9611C481.124 80.9561 483.149 75.2764 484.783 70.3388C486.417 65.4011 488.463 59.3413 489.331 56.8725C490.198 54.4037 491.513 50.3638 492.252 47.895C492.991 45.4262 494.927 39.502 496.553 34.729C498.179 29.957 499.821 24.2143 500.202 21.968L500.894 17.8822L493.078 18.1755L485.262 18.4687L482.385 27.4463C480.802 32.3839 477.751 41.7035 475.605 48.1554C473.459 54.6082 471.703 61.0421 471.703 62.4535C471.703 66.4246 469.39 64.8246 467.859 59.7932C467.12 57.3643 465.003 51.5608 463.155 46.8975C458.78 35.8592 456.884 30.5405 455.186 24.5425C454.423 21.8473 453.215 19.2737 452.501 18.8219C451.787 18.37 448.442 17.9939 445.068 17.985C439.642 17.972 438.746 18.2543 437.318 20.4288C436.43 21.7804 435.703 23.3964 435.703 24.0188C435.703 24.6403 435.091 26.5645 434.342 28.2931C431.992 33.7205 423.541 57.2316 422.816 60.3578C421.686 65.2316 419.28 64.6301 417.981 59.1508C416.816 54.2371 416.01 51.502 410.693 34.4288C408.984 28.9425 407.321 23.3316 406.996 21.96C406.157 18.4179 405.103 18.0029 396.922 17.985C391.334 17.974 389.505 18.3211 389.06 19.4792ZM357.388 31.0013C362.14 32.7919 365.703 36.8986 365.703 40.5843C365.703 45.0402 361.399 49.7204 356.203 50.9164C350.788 52.1633 339.02 52.1244 336.637 50.8526C334.938 49.9449 334.703 48.694 334.703 40.5444C334.703 35.4442 335.003 30.9704 335.37 30.6053C336.452 29.525 354.324 29.8462 357.388 31.0013Z" fill="white"/>
<path fill-rule="evenodd" clip-rule="evenodd" d="M10.3657 1.829C9.45566 2.835 8.71066 4.629 8.71066 5.816C8.71066 8.357 9.87366 8.974 49.6137 27.513C78.4757 40.977 79.8437 41.342 80.5167 35.757C80.7987 33.416 79.6227 32.589 65.5167 25.225C27.9357 5.603 16.5747 0 14.3757 0C13.0807 0 11.2757 0.823 10.3657 1.829ZM167.211 12.95C130.325 31.998 128.26 33.196 127.893 35.758C127.668 37.329 128.3 38.311 130.047 39.107C132.103 40.044 133.422 39.812 137.866 37.733C149.153 32.451 187.423 14.731 191.711 12.801C197.551 10.173 199.711 8.202 199.711 5.5C199.711 2.865 196.786 -0.00799954 194.132 0.0200005C193.076 0.0310005 180.961 5.849 167.211 12.95ZM100.211 38.718C96.7557 39.557 91.5557 44.128 90.1047 47.6C85.7277 58.074 92.7307 67.988 104.511 67.996C112.992 68.002 118.47 64.064 120.754 56.317C121.875 52.517 121.769 51.692 119.599 47.317C116.058 40.174 108.328 36.746 100.211 38.718ZM2.99066 46.966C-0.157341 48.31 -1.00634 52.541 1.34166 55.18C3.19366 57.261 3.51766 57.274 37.4407 56.616C56.2667 56.251 72.3367 55.697 73.1517 55.384C75.6317 54.433 76.1267 50.963 74.0657 48.982C72.3877 47.37 69.0067 47.143 38.7107 46.609C18.4177 46.251 4.33566 46.392 2.99066 46.966ZM156.211 46.959C145.211 47.257 135.649 47.864 134.961 48.309C133.323 49.369 133.356 53.461 135.015 54.837C135.856 55.535 148.543 56.165 170.789 56.614C202.652 57.256 205.39 57.178 206.985 55.583C209.38 53.188 209.146 49.418 206.488 47.557C204.099 45.883 198.486 45.816 156.211 46.959ZM43.8687 78.493C27.1807 86.393 12.6687 93.633 11.6187 94.583C7.82366 98.017 10.4867 104.019 15.7897 103.984C17.1207 103.975 25.4107 100.119 34.2107 95.415C43.0107 90.711 56.7357 83.453 64.7107 79.286C78.0457 72.318 81.7107 69.859 81.7107 67.88C81.7107 66.325 78.4717 64.003 76.3897 64.065C75.1907 64.101 60.5567 70.593 43.8687 78.493ZM128.751 65.452C126.041 68.717 128.167 70.467 146.72 80.248C172.061 93.608 189.791 102.603 192.363 103.403C195.667 104.431 200.214 100.139 199.372 96.786C198.852 94.713 196.509 93.15 186.971 88.512C165.418 78.032 133.901 64 131.916 64C130.838 64 129.414 64.653 128.751 65.452Z" fill="white"/>
</svg>
